# xmcd CD database file
# Copyright (C) 1993-1998 Ti Kan
#
# Track frame offsets:
# 150
# 19645
# 46907
# 75720
# 94632
# 125960
# 144200
# 166862
# 179590
# 194177
# 218450
# 248692
# 268030
# 287207
# 301182
# 330987
#
# Disc length: 4597 seconds
# Revision: 0
# Processed by: cddbd v1.4b41PL1 Copyright (c) Steve Scherf et al.
# Submitted via: CDSpectrumPro v3.3.331
#
DISCID=dd11f310
DTITLE=Various Artist - Masterworks
DYEAR=1900
DGENRE=
TTITLE0=David A. Stewart - Lily Was Here
TTITLE1=The Alan Parsons Project - I Robot
TTITLE2=Dixie Dregs - Hereafter
TTITLE3=Candy Dulfer - Pick Up The Pieces
TTITLE4=Vangelis - Spiral
TTITLE5=Guru Josh - Infinity
TTITLE6=Leo Kottke - Doorbell
TTITLE7=Clannad - Robin (The Hooded Man)
TTITLE8=The London Symphony Orchestra-David Palmer - Bourrée
TTITLE9=Lee Oskar - My Road
TTITLE10=The Grid - Swamp Thing
TTITLE11=Shadowfax - A Thousand Teardrops
TTITLE12=Tangerine Dream - Lily on the Beach
TTITLE13=Isao Tomita - Star Wars - Main Title
TTITLE14=The Allman Brothers Band - From The Madness of the West
TTITLE15=Beagle Music Ltd - The Kiss (Goodbye Mix)
EXTD=
EXTT0=
EXTT1=
EXTT2=
EXTT3=
EXTT4=
EXTT5=
EXTT6=
EXTT7=
EXTT8=
EXTT9=
EXTT10=
EXTT11=
EXTT12=
EXTT13=
EXTT14=
EXTT15=
PLAYORDER=
